<svg width="47" height="47" viewBox="0 0 47 47" fill="none" xmlns="http://www.w3.org/2000/svg">
<path d="M23.5 0.65625C24.3802 0.65625 25.0938 1.3698 25.0938 2.25V4.375C25.0938 5.2552 24.3802 5.96875 23.5 5.96875C22.6198 5.96875 21.9062 5.2552 21.9062 4.375V2.25C21.9062 1.3698 22.6198 0.65625 23.5 0.65625Z" fill="#1A2421"/>
<path fill-rule="evenodd" clip-rule="evenodd" d="M11.2812 23.5C11.2812 16.7518 16.7518 11.2812 23.5 11.2812C30.2482 11.2812 35.7188 16.7518 35.7188 23.5C35.7188 30.2482 30.2482 35.7188 23.5 35.7188C16.7518 35.7188 11.2812 30.2482 11.2812 23.5ZM23.5 14.4688C18.5122 14.4688 14.4688 18.5122 14.4688 23.5C14.4688 28.4878 18.5122 32.5312 23.5 32.5312C28.4878 32.5312 32.5312 28.4878 32.5312 23.5C32.5312 18.5122 28.4878 14.4688 23.5 14.4688Z" fill="#1A2421"/>
<path d="M9.60096 7.34708C8.97856 6.72468 7.96946 6.72468 7.34706 7.34708C6.72466 7.96948 6.72466 8.97858 7.34706 9.60098L8.84966 11.1036C9.47206 11.726 10.4812 11.726 11.1036 11.1036C11.726 10.4812 11.726 9.47208 11.1036 8.84968L9.60096 7.34708Z" fill="#1A2421"/>
<path d="M46.3438 23.5C46.3438 24.3802 45.6302 25.0938 44.75 25.0938H42.625C41.7448 25.0938 41.0312 24.3802 41.0312 23.5C41.0312 22.6198 41.7448 21.9062 42.625 21.9062H44.75C45.6302 21.9062 46.3438 22.6198 46.3438 23.5Z" fill="#1A2421"/>
<path d="M39.6529 9.60096C40.2753 8.97856 40.2753 7.96946 39.6529 7.34706C39.0305 6.72466 38.0214 6.72466 37.399 7.34706L35.8964 8.84966C35.274 9.47206 35.274 10.4812 35.8964 11.1036C36.5188 11.726 37.5279 11.726 38.1503 11.1036L39.6529 9.60096Z" fill="#1A2421"/>
<path d="M23.5 41.0312C24.3802 41.0312 25.0938 41.7448 25.0938 42.625V44.75C25.0938 45.6302 24.3802 46.3438 23.5 46.3438C22.6198 46.3438 21.9062 45.6302 21.9062 44.75V42.625C21.9062 41.7448 22.6198 41.0312 23.5 41.0312Z" fill="#1A2421"/>
<path d="M38.1505 35.8964C37.5281 35.274 36.519 35.274 35.8966 35.8964C35.2742 36.5188 35.2742 37.528 35.8966 38.1504L37.3992 39.653C38.0216 40.2754 39.0307 40.2754 39.6531 39.653C40.2755 39.0306 40.2755 38.0214 39.6531 37.3991L38.1505 35.8964Z" fill="#1A2421"/>
<path d="M5.96875 23.5C5.96875 24.3802 5.2552 25.0938 4.375 25.0938H2.25C1.3698 25.0938 0.65625 24.3802 0.65625 23.5C0.65625 22.6198 1.3698 21.9062 2.25 21.9062H4.375C5.2552 21.9062 5.96875 22.6198 5.96875 23.5Z" fill="#1A2421"/>
<path d="M11.1034 38.1503C11.7258 37.5279 11.7258 36.5188 11.1034 35.8964C10.481 35.274 9.47192 35.274 8.84952 35.8964L7.34692 37.399C6.72452 38.0214 6.72452 39.0305 7.34692 39.6529C7.96932 40.2753 8.97842 40.2753 9.60082 39.6529L11.1034 38.1503Z" fill="#1A2421"/>
</svg>
