<svg width="22" height="19" viewBox="0 0 22 19" fill="none" xmlns="http://www.w3.org/2000/svg">
<path fill-rule="evenodd" clip-rule="evenodd" d="M0.0625 6.53724C0.0625 3.16163 3.02393 0.5625 6.5 0.5625C8.29184 0.5625 9.86855 1.40267 11 2.48979C12.1314 1.40267 13.7082 0.5625 15.5 0.5625C18.9761 0.5625 21.9375 3.16163 21.9375 6.53724C21.9375 8.84958 20.9514 10.8831 19.5852 12.6019C18.2214 14.3178 16.4374 15.7741 14.7293 16.9575C14.0769 17.4094 13.4169 17.8264 12.8128 18.134C12.2456 18.4229 11.5934 18.6875 11 18.6875C10.4066 18.6875 9.75437 18.4229 9.18716 18.134C8.5831 17.8264 7.92308 17.4094 7.27066 16.9575C5.56256 15.7741 3.77859 14.3178 2.41478 12.6019C1.0486 10.8831 0.0625 8.84959 0.0625 6.53724ZM6.5 2.4375C3.90094 2.4375 1.9375 4.34887 1.9375 6.53724C1.9375 8.29161 2.68223 9.925 3.88261 11.4353C5.08535 12.9485 6.70365 14.2837 8.33843 15.4162C8.95702 15.8447 9.53967 16.2094 10.0381 16.4632C10.5733 16.7358 10.8833 16.8125 11 16.8125C11.1167 16.8125 11.4267 16.7358 11.9619 16.4632C12.4603 16.2094 13.043 15.8447 13.6616 15.4162C15.2963 14.2837 16.9146 12.9485 18.1174 11.4353C19.3178 9.925 20.0625 8.29161 20.0625 6.53724C20.0625 4.34887 18.0991 2.4375 15.5 2.4375C14.0073 2.4375 12.6135 3.32928 11.7432 4.46115C11.5657 4.69195 11.2911 4.82721 11 4.82721C10.7089 4.82721 10.4343 4.69195 10.2568 4.46115C9.3865 3.32928 7.99269 2.4375 6.5 2.4375Z" fill="#1A2421"/>
</svg>
