<svg id="Layer_1" data-name="Layer 1" xmlns="http://www.w3.org/2000/svg" viewBox="0 0 21.88 18.13"><defs><style>.cls-1{fill:#95221e;}.cls-1,.cls-2{fill-rule:evenodd;}.cls-2{fill:#231f20;}</style></defs><path class="cls-1" d="M20.06,6.54a7.91,7.91,0,0,1-1.94,4.9,21.28,21.28,0,0,1-4.46,4,16,16,0,0,1-1.7,1,2.51,2.51,0,0,1-1,.35,2.51,2.51,0,0,1-1-.35,16,16,0,0,1-1.7-1,21.28,21.28,0,0,1-4.46-4,7.91,7.91,0,0,1-1.94-4.9A4.35,4.35,0,0,1,6.5,2.44a5,5,0,0,1,3.76,2,.93.93,0,0,0,1.48,0,5,5,0,0,1,3.76-2A4.35,4.35,0,0,1,20.06,6.54Z" transform="translate(-0.06 -0.56)"/><path class="cls-2" d="M15.5.56A6.57,6.57,0,0,0,11,2.49,6.57,6.57,0,0,0,6.5.56a6.22,6.22,0,0,0-6.44,6A9.78,9.78,0,0,0,2.41,12.6,23,23,0,0,0,7.27,17a15.71,15.71,0,0,0,1.92,1.17,4.24,4.24,0,0,0,1.81.56,4.24,4.24,0,0,0,1.81-.56A15.71,15.71,0,0,0,14.73,17a23,23,0,0,0,4.86-4.36,9.78,9.78,0,0,0,2.35-6.06A6.22,6.22,0,0,0,15.5.56Zm2.62,10.88a21.28,21.28,0,0,1-4.46,4,16,16,0,0,1-1.7,1,2.51,2.51,0,0,1-1,.35,2.51,2.51,0,0,1-1-.35,16,16,0,0,1-1.7-1,21.28,21.28,0,0,1-4.46-4,7.91,7.91,0,0,1-1.94-4.9A4.35,4.35,0,0,1,6.5,2.44a5,5,0,0,1,3.76,2,.93.93,0,0,0,1.48,0,5,5,0,0,1,3.76-2,4.35,4.35,0,0,1,4.56,4.1A7.91,7.91,0,0,1,18.12,11.44Z" transform="translate(-0.06 -0.56)"/></svg>