<svg width="39" height="46" viewBox="0 0 39 46" fill="none" xmlns="http://www.w3.org/2000/svg">
<path d="M34.2792 1.3457C34.9016 1.9681 34.9016 2.97721 34.2792 3.59961L33.1095 4.76931C40.0987 12.9104 39.7374 25.1883 32.0253 32.9003C28.3853 36.5404 23.7281 38.5428 18.9687 38.9077V42.1562H22.6875C23.5677 42.1562 24.2812 42.8698 24.2812 43.75C24.2812 44.6302 23.5677 45.3437 22.6875 45.3437H12.0625C11.1823 45.3437 10.4687 44.6302 10.4687 43.75C10.4687 42.8698 11.1823 42.1562 12.0625 42.1562H15.7812V38.9077C11.5179 38.5806 7.33635 36.9396 3.89431 33.9845L2.72461 35.1542C2.10221 35.7766 1.0931 35.7766 0.470705 35.1542C-0.151693 34.5318 -0.151693 33.5227 0.470705 32.9003L1.97331 31.3977C3.0261 30.3449 4.66207 30.3988 5.687 31.3173C9.00618 34.2918 13.1871 35.7798 17.3685 35.7812L17.375 35.7812L17.3819 35.7812C21.8662 35.7794 26.3501 34.0678 29.7714 30.6464C36.3864 24.0315 36.6101 13.4443 30.4423 6.56199C29.5238 5.53707 29.4699 3.9011 30.5227 2.84831L32.0253 1.3457C32.6477 0.723307 33.6568 0.723307 34.2792 1.3457Z" fill="#1A2421"/>
<path fill-rule="evenodd" clip-rule="evenodd" d="M3.03123 18.25C3.03123 10.3281 9.45314 3.90623 17.375 3.90623C25.2968 3.90623 31.7187 10.3281 31.7187 18.25C31.7187 26.1718 25.2968 32.5937 17.375 32.5937C9.45314 32.5937 3.03123 26.1718 3.03123 18.25ZM17.375 7.09373C11.2135 7.09373 6.21873 12.0885 6.21873 18.25C6.21873 18.9615 6.28533 19.6575 6.41266 20.332C7.2867 19.3788 8.5423 18.7812 9.93748 18.7812C12.5781 18.7812 14.7187 20.9219 14.7187 23.5625C14.7187 25.5225 13.5394 27.207 11.8516 27.9452C13.4801 28.8749 15.3655 29.4062 17.375 29.4062C22.7796 29.4062 27.2866 25.563 28.3123 20.4604C26.8915 22.6473 24.4272 24.0937 21.625 24.0937C17.224 24.0937 13.6562 20.526 13.6562 16.125C13.6562 11.724 17.224 8.15623 21.625 8.15623C21.8087 8.15623 21.991 8.16245 22.1717 8.17469C20.7186 7.48167 19.0921 7.09373 17.375 7.09373ZM16.8437 16.125C16.8437 13.4844 18.9844 11.3437 21.625 11.3437C24.2656 11.3437 26.4062 13.4844 26.4062 16.125C26.4062 18.7656 24.2656 20.9062 21.625 20.9062C18.9844 20.9062 16.8437 18.7656 16.8437 16.125ZM9.93748 21.9687C9.05727 21.9687 8.34373 22.6823 8.34373 23.5625C8.34373 24.4427 9.05727 25.1562 9.93748 25.1562C10.8177 25.1562 11.5312 24.4427 11.5312 23.5625C11.5312 22.6823 10.8177 21.9687 9.93748 21.9687Z" fill="#1A2421"/>
</svg>
