<svg width="51" height="51" viewBox="0 0 51 51" fill="none" xmlns="http://www.w3.org/2000/svg">
<g clip-path="url(#clip0_102_10980)">
<path d="M8.93562 0H10.1256C11.05 0.2125 11.9283 0.595 12.7429 1.08375C15.385 2.6775 18.0377 4.25708 20.6833 5.84375C22.1283 6.76104 23.9027 6.32542 25.5106 6.37854C27.1044 6.28646 28.8717 6.76813 30.306 5.85437C32.2292 4.71042 34.1346 3.54167 36.0648 2.40833C37.6019 1.52292 39.0575 0.400208 40.8213 0H42.2131C44.6392 0.481667 46.456 2.81562 46.2294 5.29833C46.2081 10.9225 46.2294 16.5467 46.2117 22.1708C48.3685 22.1531 50.5502 23.3679 51 25.6098V26.9485C49.0769 31.2587 46.6331 35.3246 44.4727 39.5215C41.1329 46.1408 34.0956 50.5785 26.7219 51H24.2887C18.8806 50.6529 13.5894 48.2765 9.88833 44.2921C7.1825 41.48 5.68437 37.8179 3.81083 34.4533C2.56417 31.9635 1.09437 29.5835 0 27.0194V25.6771C0.400208 23.4033 2.61375 22.1425 4.78833 22.1708C4.78125 16.4369 4.77417 10.6994 4.78479 4.96542C4.675 2.55354 6.57333 0.357708 8.93562 0V0ZM8.69125 3.41417C8.08562 3.75062 8.03604 4.505 7.89792 5.11062C8.00771 8.59208 7.905 12.0806 7.95458 15.5656C7.96167 18.8629 7.95812 22.1602 7.95812 25.4575C6.38208 25.415 4.79896 25.4115 3.23708 25.6487C3.28312 26.3712 3.43542 27.0902 3.80729 27.7206C5.62417 31.2021 7.49062 34.6552 9.36417 38.1048C11.3227 41.8023 14.5952 44.795 18.4627 46.3923C23.1873 48.3721 28.7583 48.241 33.3767 46.0169C36.7979 44.3877 39.7163 41.6642 41.5048 38.3137C43.1765 35.2573 44.8446 32.1973 46.4525 29.1054C47.005 28.004 47.77 26.9344 47.7665 25.6523C46.2046 25.4079 44.6215 25.415 43.0419 25.4575C43.0383 22.1602 43.0242 18.8594 43.0348 15.5621C43.0808 12.0771 42.9746 8.59208 43.0915 5.11062C42.925 4.57937 42.8967 3.95958 42.5 3.53104C41.8129 3.00688 40.8496 3.21938 40.1696 3.65146C36.89 5.60292 33.6246 7.58625 30.3308 9.51292C29.2542 9.44917 28.1775 9.58021 27.1044 9.60854V9.48458C26.0419 9.51646 24.9758 9.54125 23.9169 9.60854V9.50229C22.8367 9.51292 21.7529 9.51292 20.6727 9.51646C17.386 7.58271 14.1171 5.62063 10.841 3.66563C10.2106 3.26896 9.38542 3.03521 8.69125 3.41417Z" fill="#1A2421"/>
<path d="M15.7494 19.3518C16.9501 18.8312 18.5544 19.3837 18.9547 20.6835C19.1778 22.047 19.0822 23.446 19.0538 24.8202C19.1105 26.4564 17.0847 27.6818 15.668 26.8212C14.4815 26.2935 14.2513 24.8768 14.3292 23.7187C14.3434 22.1923 14.0176 20.0885 15.7494 19.3518Z" fill="#1A2421"/>
<path d="M33.4221 19.288C34.945 18.7037 36.8044 19.9503 36.6485 21.622C36.5387 23.2937 37.2081 25.5249 35.6002 26.6689C34.0348 27.873 31.715 26.3855 31.8531 24.5049C31.8496 22.7412 31.3325 20.092 33.4221 19.288Z" fill="#1A2421"/>
<path d="M7.89844 5.1106C10.4343 6.63705 13.0445 8.05018 15.4953 9.7006C16.2745 10.0689 15.7609 10.9933 15.1659 11.2448C12.7859 12.7216 10.3741 14.1489 7.9551 15.5656C7.90552 12.0806 8.00823 8.59206 7.89844 5.1106Z" fill="#1A2421"/>
<path d="M35.5096 9.71122C37.9498 8.04664 40.5671 6.64768 43.0923 5.1106C42.9754 8.59205 43.0817 12.0771 43.0356 15.5621C40.6309 14.1348 38.2154 12.7216 35.8425 11.2448C35.2546 10.9862 34.7198 10.0866 35.5096 9.71122Z" fill="#1A2421"/>
<path d="M20.6729 9.51661C21.7531 9.51307 22.8368 9.51307 23.917 9.50244V9.60869C23.832 11.8364 24.0516 14.0747 23.8178 16.2954C23.6372 17.8183 21.2041 17.9493 20.8358 16.4689C20.5099 14.1704 20.8145 11.8293 20.6729 9.51661Z" fill="#1A2421"/>
<path d="M27.1047 9.60851C28.1778 9.58018 29.2545 9.44914 30.3312 9.51289C30.2072 11.7477 30.4339 13.9966 30.2178 16.2279C30.0762 17.7012 27.806 18.0023 27.2641 16.621C26.8639 14.3083 27.1897 11.9425 27.1047 9.60851Z" fill="#1A2421"/>
<path d="M20.7393 28.7758C23.902 28.6164 27.0753 28.6625 30.2415 28.7333C29.009 30.1287 27.9076 31.6445 26.5936 32.962C26.1049 33.5287 25.1628 33.6668 24.6032 33.125C23.1547 31.8252 22.1205 30.1429 20.7393 28.7758Z" fill="#1A2421"/>
<path d="M22.2031 40.6687C24.0271 39.6133 25.2773 37.7327 25.4969 35.636C25.7377 37.722 26.9879 39.5743 28.7835 40.6404C28.6348 41.6143 28.6454 42.7193 27.9335 43.4914C26.7719 44.9506 24.2856 44.9683 23.1062 43.5268C22.3767 42.7583 22.3554 41.6497 22.2031 40.6687Z" fill="#1A2421"/>
</g>
<defs>
<clipPath id="clip0_102_10980">
<rect width="51" height="51" fill="white"/>
</clipPath>
</defs>
</svg>
