<svg width="21" height="20" viewBox="0 0 21 20" fill="none" xmlns="http://www.w3.org/2000/svg">
<path fill-rule="evenodd" clip-rule="evenodd" d="M2 6.80918C2 5.15599 2.62978 3.98351 3.5288 3.21057C4.44864 2.41972 5.70871 2 7.00595 2C8.30318 2 9.56325 2.41972 10.4831 3.21057C11.3821 3.98351 12.0119 5.15599 12.0119 6.80918C12.0119 8.46236 11.3821 9.63484 10.4831 10.4078C9.56325 11.1986 8.30318 11.6184 7.00595 11.6184C5.70871 11.6184 4.44864 11.1986 3.5288 10.4078C2.62978 9.63484 2 8.46236 2 6.80918ZM14.0119 6.80918C14.0119 4.58958 13.1402 2.85747 11.787 1.69402C10.4546 0.548479 8.71169 0 7.00595 0C5.3002 0 3.55731 0.548479 2.22492 1.69402C0.871711 2.85746 0 4.58958 0 6.80918C0 9.02877 0.871711 10.7609 2.22492 11.9243C3.55731 13.0699 5.3002 13.6184 7.00595 13.6184C8.53342 13.6184 10.0907 13.1785 11.3563 12.264L18.3186 19.0755C18.7133 19.4618 19.3465 19.4548 19.7327 19.0601C20.1189 18.6653 20.112 18.0322 19.7172 17.6459L12.7743 10.8533C13.549 9.78506 14.0119 8.42653 14.0119 6.80918Z" fill="#1A2421"/>
</svg>
