<svg width="30" height="30" viewBox="0 0 30 30" fill="none" xmlns="http://www.w3.org/2000/svg">
<path fill-rule="evenodd" clip-rule="evenodd" d="M4.0625 12.5372C4.0625 9.16163 7.02393 6.5625 10.5 6.5625C12.2918 6.5625 13.8686 7.40267 15 8.48979C16.1314 7.40267 17.7082 6.5625 19.5 6.5625C22.9761 6.5625 25.9375 9.16163 25.9375 12.5372C25.9375 14.8496 24.9514 16.8831 23.5852 18.6019C22.2214 20.3178 20.4374 21.7741 18.7293 22.9575C18.0769 23.4094 17.4169 23.8264 16.8128 24.134C16.2456 24.4229 15.5934 24.6875 15 24.6875C14.4066 24.6875 13.7544 24.4229 13.1872 24.134C12.5831 23.8264 11.9231 23.4094 11.2707 22.9575C9.56256 21.7741 7.77859 20.3178 6.41478 18.6019C5.0486 16.8831 4.0625 14.8496 4.0625 12.5372ZM10.5 8.4375C7.90094 8.4375 5.9375 10.3489 5.9375 12.5372C5.9375 14.2916 6.68223 15.925 7.88261 17.4353C9.08535 18.9485 10.7037 20.2837 12.3384 21.4162C12.957 21.8447 13.5397 22.2094 14.0381 22.4632C14.5733 22.7358 14.8833 22.8125 15 22.8125C15.1167 22.8125 15.4267 22.7358 15.9619 22.4632C16.4603 22.2094 17.043 21.8447 17.6616 21.4162C19.2963 20.2837 20.9146 18.9485 22.1174 17.4353C23.3178 15.925 24.0625 14.2916 24.0625 12.5372C24.0625 10.3489 22.0991 8.4375 19.5 8.4375C18.0073 8.4375 16.6135 9.32928 15.7432 10.4612C15.5657 10.6919 15.2911 10.8272 15 10.8272C14.7089 10.8272 14.4343 10.6919 14.2568 10.4612C13.3865 9.32928 11.9927 8.4375 10.5 8.4375Z" fill="#1A2421"/>
</svg>
